<?xml version="1.0" encoding="utf-8"?>
<!-- Generator: Adobe Illustrator 23.0.2, SVG Export Plug-In . SVG Version: 6.00 Build 0)  -->
<svg version="1.1" id="Layer_1" xmlns="http://www.w3.org/2000/svg" xmlns:xlink="http://www.w3.org/1999/xlink" x="0px" y="0px"
	 viewBox="0 0 192 192" style="enable-background:new 0 0 192 192;" xml:space="preserve">
<style type="text/css">
	.st0{clip-path:url(#SVGID_2_);fill:#5B5B5B;}
	.st1{fill:#FFFFFF;}
</style>
<g id="XMLID_184_">
	<g>
		<defs>
			<rect id="SVGID_1_" x="1" y="3" width="191" height="191"/>
		</defs>
		<clipPath id="SVGID_2_">
			<use xlink:href="#SVGID_1_"  style="overflow:visible;"/>
		</clipPath>
		<path id="XMLID_182_" class="st0" d="M188,31.8c-2.2-11.3-8.7-20.3-16.9-23.3C156.2,3,96.5,3,96.5,3S36.8,3,21.9,8.5
			c-8.2,3-14.7,12-16.9,23.3C1,52.4,1,95.2,1,95.2s0,42.9,4,63.4C7.2,170,13.7,179,21.9,182c14.9,5.5,74.6,5.5,74.6,5.5
			s59.7,0,74.6-5.5c8.2-3,14.7-12,16.9-23.3c4-20.6,4-63.4,4-63.4S192,52.4,188,31.8z"/>
	</g>
	<polygon id="XMLID_1355_" class="st1" points="70.5,131.8 132.3,96.6 70.5,61.4 	"/>
</g>
</svg>
