<svg height="6" viewBox="0 0 16 6" width="16" xmlns="http://www.w3.org/2000/svg" xmlns:xlink="http://www.w3.org/1999/xlink"><defs><linearGradient id="a" x1="100%" x2="0%" y1="66.402604%" y2="100%"><stop offset="0" stop-color="#f70087"/><stop offset="1" stop-color="#f700c6"/></linearGradient><path id="b" d="m0 0h16v6h-16z"/><mask id="c" fill="#fff"><use fill="none" xlink:href="#b"/></mask></defs><g fill="none" fill-rule="evenodd"><use fill="url(#a)" xlink:href="#b"/><g fill="#fff" fill-rule="nonzero" mask="url(#c)" opacity=".8643"><g transform="matrix(-.34202014 .93969262 -.93969262 -.34202014 48.6862265363 -3.31701632361)"><path d="m36.0032785 1.53563218-32.46706506 34.15245982h3.66020143l32.46706503-34.15245982zm7.1865827-1.53563218-35.38676517 37.2237241h-7.79326385l35.38676512-37.2237241z" fill-opacity=".4"/><g fill-opacity=".2"><path d="m41.7369256 1.53563218-32.4670651 34.15245982h3.6602014l32.4670651-34.15245982zm7.1865827-1.53563218-35.3867652 37.2237241h-7.79326386l35.38676516-37.2237241z"/><path d="m15.0035076 35.688092h3.6602014l32.4670651-34.15245982h-3.6602015zm39.6536477-35.688092-35.3867651 37.2237241h-7.7932639l35.3867652-37.2237241z"/></g></g><g transform="matrix(.34202014 -.93969262 .93969262 .34202014 -31.47950357155 6.00157301424)"><path d="m1.76319063 34.9202759h3.66020143l32.46706504-34.15245981h-3.6602014zm39.65364777-35.68809199-35.38676517 37.22372409h-7.79326386l35.38676513-37.22372409z" fill-opacity=".4"/><g fill-opacity=".2"><path d="m39.9639028.76781609-32.46706511 34.15245981h3.66020141l32.4670651-34.15245981zm7.1865826-1.53563218-35.3867651 37.22372409h-7.79326387l35.38676517-37.22372409z"/><path d="m45.6975498.76781609-32.4670651 34.15245981h3.6602015l32.467065-34.15245981zm7.1865827-1.53563218-35.3867652 37.22372409h-7.79326381l35.38676511-37.22372409z"/></g></g></g></g></svg>