<?xml version="1.0" encoding="UTF-8"?>
<svg width="16px" height="16px" viewBox="0 0 16 16" version="1.1" xmlns="http://www.w3.org/2000/svg" xmlns:xlink="http://www.w3.org/1999/xlink">
    <!-- Generator: Sketch 51.2 (57519) - http://www.bohemiancoding.com/sketch -->
    <title>White Social - Phone</title>
    <desc>Created with Sketch.</desc>
    <defs>
        <linearGradient x1="3.46486582%" y1="-26.8555474%" x2="72.2788665%" y2="32.414307%" id="linearGradient-1">
            <stop stop-color="#FFFFFF" offset="0%"></stop>
            <stop stop-color="#FFFFFF" stop-opacity="0.4" offset="100%"></stop>
        </linearGradient>
    </defs>
    <g id="White-Social---Phone" stroke="none" stroke-width="1" fill="none" fill-rule="evenodd">
        <circle id="Oval-2" fill-opacity="0.699999988" fill="url(#linearGradient-1)" cx="8" cy="8" r="8"></circle>
        <path d="M10.2564588,12.8000018 C9.74654721,12.6525912 9.21896476,12.5492298 8.72966919,12.3509418 C5.71343977,11.1296166 3.83176027,8.94751201 3.2189025,5.72496469 C3.04473737,4.80957327 4.10713126,3.35059708 5.02815822,3.21001481 C5.15105106,3.1912705 5.32709037,3.19327882 5.40580605,3.26517661 C6.01638802,3.82322128 6.69122769,4.33962683 7.17931843,4.99340133 C7.51854551,5.4476829 7.19364254,5.99046435 6.77703849,6.34687388 C6.25775599,6.79124775 6.23299,7.24044157 6.69992925,7.712798 C7.26271956,8.28208926 7.83153403,8.84656055 8.42096451,9.38773535 C8.77491732,9.71281511 9.12378305,9.64935226 9.48094874,9.31583756 C10.4240643,8.4351231 10.9027841,8.44021084 11.7855242,9.36269832 C12.1629043,9.75686423 12.4641122,10.2238651 12.7999925,10.6577958 L12.7999925,10.9255715 C12.4109658,11.9216973 11.6342509,12.4746542 10.6580694,12.8000018 L10.2564588,12.8000018 Z" id="Fill-1" fill="#FFFFFF"></path>
    </g>
</svg>