<?xml version="1.0" encoding="UTF-8"?>
<svg width="16px" height="16px" viewBox="0 0 16 16" version="1.1" xmlns="http://www.w3.org/2000/svg" xmlns:xlink="http://www.w3.org/1999/xlink">
    <!-- Generator: Sketch 51.2 (57519) - http://www.bohemiancoding.com/sketch -->
    <title>White Social - Twitter</title>
    <desc>Created with Sketch.</desc>
    <defs>
        <linearGradient x1="3.46486582%" y1="-26.8555474%" x2="72.2788665%" y2="32.414307%" id="linearGradient-1">
            <stop stop-color="#FFFFFF" offset="0%"></stop>
            <stop stop-color="#FFFFFF" stop-opacity="0.4" offset="100%"></stop>
        </linearGradient>
    </defs>
    <g id="White-Social---Twitter" stroke="none" stroke-width="1" fill="none" fill-rule="evenodd">
        <circle id="Oval-2" fill-opacity="0.699999988" fill="url(#linearGradient-1)" cx="8" cy="8" r="8"></circle>
        <path d="M13.6,5.27629427 C13.2074068,5.44762388 12.7861599,5.56381765 12.3435622,5.61569202 C12.7954845,5.34916214 13.1414197,4.92640836 13.3053764,4.42421231 C12.8814629,4.67103611 12.4135405,4.85026188 11.9149602,4.94741903 C11.515709,4.52794388 10.9478127,4.26666667 10.3179206,4.26666667 C9.10948286,4.26666667 8.12966426,5.23166378 8.12966426,6.42116945 C8.12966426,6.58987271 8.14899327,6.75464506 8.18632667,6.91220788 C6.36800561,6.82226026 4.75564568,5.96427334 3.67651538,4.66053078 C3.4878789,4.97826557 3.38056718,5.34849268 3.38056718,5.74369571 C3.38056718,6.49141098 3.76716476,7.15115268 4.35372781,7.53713779 C3.99512156,7.52532787 3.65784868,7.42817072 3.36258022,7.26667699 L3.36258022,7.29359261 C3.36258022,8.33736255 4.11710869,9.20848113 5.11758091,9.40674352 C4.93427778,9.4553221 4.7409877,9.48223772 4.54102223,9.48223772 C4.39972353,9.48223772 4.26307843,9.46845376 4.12909999,9.44219043 C4.40770611,10.2988728 5.215568,10.9218458 6.1727286,10.9389256 C5.42419579,11.5166158 4.48036854,11.8599445 3.45523397,11.8599445 C3.27860623,11.8599445 3.10462773,11.8494391 2.93333333,11.8304025 C3.90182293,12.4428874 5.0516113,12.8 6.28737803,12.8 C10.3126221,12.8 12.5128871,9.51638005 12.5128871,6.6686627 L12.5055494,6.38967062 C12.9354586,6.08767666 13.3073808,5.7082488 13.6,5.27629427 Z" id="Shape" fill="#FFFFFF" fill-rule="nonzero"></path>
    </g>
</svg>