<?xml version="1.0" encoding="UTF-8"?>
<svg width="16px" height="16px" viewBox="0 0 16 16" version="1.1" xmlns="http://www.w3.org/2000/svg" xmlns:xlink="http://www.w3.org/1999/xlink">
    <!-- Generator: Sketch 51.2 (57519) - http://www.bohemiancoding.com/sketch -->
    <title>White Social - Instagram</title>
    <desc>Created with Sketch.</desc>
    <defs>
        <linearGradient x1="3.46486582%" y1="-26.8555474%" x2="72.2788665%" y2="32.414307%" id="linearGradient-1">
            <stop stop-color="#FFFFFF" offset="0%"></stop>
            <stop stop-color="#FFFFFF" stop-opacity="0.4" offset="100%"></stop>
        </linearGradient>
    </defs>
    <g id="White-Social---Instagram" stroke="none" stroke-width="1" fill="none" fill-rule="evenodd">
        <circle id="Oval-2" fill-opacity="0.699999988" fill="url(#linearGradient-1)" cx="8" cy="8" r="8"></circle>
        <path d="M10.1506903,3.2 C11.6115697,3.2 12.8000568,4.38848706 12.8,5.84925294 L12.8,10.1507471 C12.8,11.6115129 11.6115697,12.8 10.1506903,12.8 L5.84919615,12.8 C4.38843028,12.8 3.2,11.6115697 3.2,10.1507471 L3.2,5.84925294 C3.2,4.38848706 4.38843028,3.2 5.84919615,3.2 L10.1506903,3.2 Z M8,5.52643646 C6.6359939,5.52643646 5.52632289,6.63610746 5.52632289,8.00011357 C5.52632289,9.36406289 6.6359939,10.4736771 8,10.4736771 C9.3640061,10.4736771 10.4736771,9.36406289 10.4736771,8.00011357 C10.4736771,6.63610746 9.3640061,5.52643646 8,5.52643646 Z M10.5774213,4.80420201 C10.4133158,4.80420201 10.2521063,4.87063917 10.1362104,4.98704617 C10.0197466,5.10288533 9.95279838,5.26415161 9.95279838,5.42882493 C9.95279838,5.59298719 10.0198034,5.75419669 10.1362104,5.87060368 C10.2520495,5.98644284 10.4133158,6.05344785 10.5774213,6.05344785 C10.7420946,6.05344785 10.9027931,5.98644284 11.0192001,5.87060368 C11.1356071,5.75419669 11.2020442,5.5929304 11.2020442,5.42882493 C11.2020442,5.26415161 11.1356071,5.10288533 11.0192001,4.98704617 C10.9033609,4.87063917 10.7420946,4.80420201 10.5774213,4.80420201 Z" id="Combined-Shape" fill="#FFFFFF" fill-rule="nonzero"></path>
    </g>
</svg>