<svg xmlns="http://www.w3.org/2000/svg" width="16" height="16"><defs><linearGradient id="a" x1="3.46486582%" x2="72.2788665%" y1="-26.8555474%" y2="32.414307%"><stop offset="0%" stop-color="#FFF"/><stop offset="100%" stop-color="#FFF" stop-opacity=".4"/></linearGradient></defs><g fill="none" fill-rule="evenodd"><circle cx="8" cy="8" r="8" fill="url(#a)" fill-opacity=".69999999"/><path fill="#FFF" fill-rule="nonzero" d="M10.1506903 3.2C11.6115697 3.2 12.8000568 4.38848706 12.8 5.84925294v4.30149416C12.8 11.6115129 11.6115697 12.8 10.1506903 12.8H5.84919615C4.38843028 12.8 3.2 11.6115697 3.2 10.1507471V5.84925294C3.2 4.38848706 4.38843028 3.2 5.84919615 3.2h4.30149415zm-.30371288 5.49426211C10.0651 8.55083987 10.1995217 8.28628821 10.2 8c0-.28628821-.1349-.55085377-.35302258-.69426211L7.25906773 5.60756181C7.15000643 5.53585347 7.02802579 5.5 6.90604515 5.5c-.12198064 0-.2439576.03585486-.35302257.10756181C6.3344224 5.75044168 6.2 6.01499335 6.2 6.30182392v3.39635216c0 .2862882.13441015.55085382.35302258.69426212.10906129.0717083.23104316.1075618.35302257.1075618.12150305 0 .24395761-.0358549.35302258-.1075618l2.58790969-1.69817609z"/></g></svg>