<svg height="8" viewBox="0 0 8 8" width="8" xmlns="http://www.w3.org/2000/svg"><g fill="none" fill-rule="evenodd"><path d="m0 0h8v8h-8z"/><g fill="#fff" fill-rule="nonzero" transform="translate(1 1)"><path d="m1.09090909 3.19274611v1.39274612c0 .10725388.07670455.21761658.19431818.21761658h.4875v.80829015c0 .20673576.18238637.373057.40909091.373057.22670455 0 .40909091-.16632124.40909091-.373057v-.80829015h.83522727v.80829015c0 .11658031.05795455.22072539.15.28911917.06647728.05284975.15511364.08393783.25056819.08393783h.00511363.00340909c.22670455 0 .40909091-.16632124.40909091-.373057v-.80829015h.47045455c.11931818 0 .19431818-.1103627.19431818-.21606218v-1.39274611-1.18911917h-3.81818182z"/><path d="m5.58347107 1.75647668c-.22258264 0-.40165289.16632125-.40165289.373057v1.49222798c0 .20673575.17907025.37305699.40165289.37305699.22258265 0 .4016529-.16632124.4016529-.37305699v-1.49222798c0-.20673575-.17907025-.373057-.4016529-.373057z"/><path d="m.40165289 1.75647668c-.22258264 0-.40165289.16632125-.40165289.373057v1.49222798c0 .20673575.17907025.37305699.40165289.37305699.22258265 0 .4016529-.16632124.4016529-.37305699v-1.49222798c0-.20673575-.17907025-.373057-.4016529-.373057z"/><path d="m3.94090909.40569948.31534091-.34041451c.00681818-.00777202-.00340909-.02487046-.02215909-.0388601-.01875-.01243523-.04090909-.01554404-.04602273-.00621762l-.32727273.35440415c-.23181818-.08393782-.51477272-.13678757-.8625-.13678757-.34943181-.0015544-.6340909.04974094-.86590909.13212436l-.32386363-.34818653c-.00681818-.00777202-.02727273-.00621762-.04602273.00621761-.01875.01243524-.02897727.02797928-.02215909.03886011l.31193182.33575129c-.82159091.32487047-.94431818 1.1222798-.96136364 1.35544042h3.81136364c-.01534091-.23471503-.13636364-1.02124352-.96136364-1.35233161zm-1.77954545.77409327c-.12613637 0-.23011364-.09326425-.23011364-.20673575 0-.11347151.10227273-.20673576.23011364-.20673576.12613636 0 .23011363.09326425.23011363.20673576 0 .1134715-.10227272.20673575-.23011363.20673575zm1.67727272 0c-.12613636 0-.23011363-.09326425-.23011363-.20673575 0-.11347151.10227272-.20673576.23011363-.20673576.12613637 0 .23011364.09326425.23011364.20673576 0 .1134715-.10397727.20673575-.23011364.20673575z"/></g></g></svg>