<svg height="8" viewBox="0 0 8 8" width="8" xmlns="http://www.w3.org/2000/svg"><g fill="none" fill-rule="evenodd"><path d="m0 0h8v8h-8z"/><path d="m5.67584338 4.1876026c.00863534.90802218.81517587 1.21015874.82415662 1.21402123-.00683151.02129993-.12887762.43057366-.42497375.85334735-.25591302.36551136-.52157439.72971023-.93998528.73724771-.41119559.00738748-.54337382-.23827426-1.01344322-.23827426-.46999264 0-.61687014.23069928-1.0060744.24566174-.40390352.01488745-.71147506-.39528628-.96953733-.75944765-.52733128-.74489768-.9303137-2.10494346-.38920426-3.02297811.26880847-.45592358.74920189-.74459768 1.27062277-.75202266.39661146-.00738748.77100132.26073669 1.0134816.26073669.24228838 0 .69723634-.322424 1.17551891-.27506165.20022469.00813748.76217409.07901226 1.1231312.59516066-.02916825.01758744-.67067789.38249881-.66369286 1.14160895m-.77276677-2.22963058c.21442503-.25361171.3587695-.60667311.31939236-.95797202-.30914509.01214996-.6828825.20126187-.90459959.45472359-.19868952.2244743-.37270117.58376068-.32572494.92812212.34449241.02602491.69646877-.17107447.91093217-.42487369" fill="#fff" fill-rule="nonzero"/></g></svg>