<svg height="16" viewBox="0 0 15 16" width="15" xmlns="http://www.w3.org/2000/svg" xmlns:xlink="http://www.w3.org/1999/xlink"><linearGradient id="a" x1="9.063951%" x2="44.447825%" y1="9.300268%" y2="67.257459%"><stop offset="0" stop-color="#f70087"/><stop offset="1" stop-color="#f700c6"/></linearGradient><linearGradient id="b" x1="50%" x2="96.091777%" y1="100%" y2="24.663549%"><stop offset="0" stop-color="#60f5ff"/><stop offset="1" stop-color="#4e8ac1"/></linearGradient><g fill="none" fill-rule="evenodd" transform="matrix(-1 0 0 -1 15 15.530973)"><path d="m11.5501541 3.51451284-3.37909433 3.37909436-3.38205746-3.38205746 3.37909435-3.37909435zm3.4513275 8.63588466-3.3790944 3.3790944-3.38205746-3.3820575 3.37909436-3.37909431zm-9.03277452-2.52780062-1.78341091 1.78341092-1.78497477-1.78497478 1.78341091-1.78341091z" fill="url(#a)"/><path d="m9.14905079 3.51451284-3.37909435 3.37909436-3.38205746-3.38205746 3.37909435-3.37909435zm3.45132741 8.63588466-3.37909433 3.3790944-3.38205746-3.3820575 3.37909435-3.37909431zm-9.03277445-2.52780062-1.78341091 1.78341092-1.78497477-1.78497478 1.78341091-1.78341091z" fill="url(#b)" opacity=".44"/></g></svg>