<svg height="19" viewBox="0 0 24 19" width="24" xmlns="http://www.w3.org/2000/svg" xmlns:xlink="http://www.w3.org/1999/xlink"><linearGradient id="a" x1="3.56944%" x2="86.092809%" y1="-34.982372%" y2="458.100669%"><stop offset="0" stop-color="#fff"/><stop offset="1" stop-color="#fff" stop-opacity=".2"/></linearGradient><g fill="url(#a)" fill-rule="evenodd"><path d="m0 11.9008026 4.33324704 3.2861665 5.14278016-3.9005245 5.1630179 3.9005245 5.1821615-3.9005245 4.1742757 3.132591v3.7753315l-4.1742757-3.1829595-5.1487935 3.9160936-5.16327739-3.9160936-5.17588867 3.9160936-4.33324704-3.2718616z" opacity=".1"/><path d="m2.97996899 0 1.35298811 1.03801329 1.36617315-1.03801329h7.59167955l1.3674717 1.03801329 1.3939647-1.03801329h7.5488511l.3989027.28735788v3.75787515l-4.1874353-3.15613572-5.1542832 3.88389469-5.17158672-3.88389469-5.15373768 3.88389469-4.3329571-3.25493035v-1.51806165z" opacity=".2"/><path d="m0 4.85334198 4.33089342 3.25367173 5.15619094-3.88431822 5.17166804 3.90407453 5.1600647-3.90407453 4.1811829 3.15859385v3.74062306l-4.1811829-3.16329424-5.1600647 3.92504994-5.17166804-3.90101734-5.15619094 3.90101734-4.33089342-3.27740589z" opacity=".14"/></g></svg>